<svg width="55" height="55" viewBox="0 0 55 55" fill="none" xmlns="http://www.w3.org/2000/svg">
<path d="M2.29166 2.29167H11.4583L17.6 32.9771C17.8095 34.0322 18.3835 34.9799 19.2214 35.6544C20.0594 36.329 21.1078 36.6873 22.1833 36.6667H44.4583C45.5338 36.6873 46.5823 36.329 47.4202 35.6544C48.2581 34.9799 48.8321 34.0322 49.0417 32.9771L52.7083 13.75H13.75M22.9167 48.125C22.9167 49.3907 21.8906 50.4167 20.625 50.4167C19.3593 50.4167 18.3333 49.3907 18.3333 48.125C18.3333 46.8594 19.3593 45.8333 20.625 45.8333C21.8906 45.8333 22.9167 46.8594 22.9167 48.125ZM48.125 48.125C48.125 49.3907 47.099 50.4167 45.8333 50.4167C44.5677 50.4167 43.5417 49.3907 43.5417 48.125C43.5417 46.8594 44.5677 45.8333 45.8333 45.8333C47.099 45.8333 48.125 46.8594 48.125 48.125Z" stroke="#23AA49" stroke-width="4" stroke-linecap="round" stroke-linejoin="round"/>
</svg>
