<svg width="15" height="18" viewBox="0 0 15 18" fill="none" xmlns="http://www.w3.org/2000/svg">
<path d="M4.66324 16.3029L4.66337 16.303C5.46461 17.1041 6.48642 17.5 7.50422 17.5C8.52244 17.5 9.54315 17.1039 10.335 16.3047L10.3368 16.3029C12.7235 13.9184 15.2318 10.259 14.3003 5.98977L4.66324 16.3029ZM4.66324 16.3029C2.2768 13.9187 -0.231903 10.2505 0.699701 5.98099L4.66324 16.3029ZM7.50422 0.5C10.3075 0.5 13.4724 2.20544 14.3002 5.98953L0.699753 5.98075C1.52734 2.1978 4.69959 0.5 7.49577 0.5H7.49582H7.49587H7.49592H7.49597H7.49602H7.49607H7.49612H7.49616H7.49621H7.49626H7.49631H7.49635H7.4964H7.49645H7.4965H7.49654H7.49659H7.49663H7.49668H7.49673H7.49677H7.49682H7.49686H7.49691H7.49695H7.497H7.49704H7.49709H7.49713H7.49717H7.49722H7.49726H7.4973H7.49735H7.49739H7.49743H7.49748H7.49752H7.49756H7.4976H7.49765H7.49769H7.49773H7.49777H7.49781H7.49785H7.49789H7.49793H7.49798H7.49802H7.49806H7.4981H7.49814H7.49818H7.49822H7.49825H7.49829H7.49833H7.49837H7.49841H7.49845H7.49849H7.49853H7.49856H7.4986H7.49864H7.49868H7.49871H7.49875H7.49879H7.49882H7.49886H7.4989H7.49893H7.49897H7.49901H7.49904H7.49908H7.49911H7.49915H7.49918H7.49922H7.49925H7.49929H7.49932H7.49936H7.49939H7.49943H7.49946H7.49949H7.49953H7.49956H7.49959H7.49963H7.49966H7.49969H7.49972H7.49976H7.49979H7.49982H7.49985H7.49989H7.49992H7.49995H7.49998H7.50001H7.50004H7.50007H7.5001H7.50013H7.50016H7.5002H7.50023H7.50026H7.50029H7.50031H7.50034H7.50037H7.5004H7.50043H7.50046H7.50049H7.50052H7.50055H7.50058H7.5006H7.50063H7.50066H7.50069H7.50071H7.50074H7.50077H7.5008H7.50082H7.50085H7.50088H7.5009H7.50093H7.50096H7.50098H7.50101H7.50104H7.50106H7.50109H7.50111H7.50114H7.50116H7.50119H7.50121H7.50124H7.50126H7.50129H7.50131H7.50134H7.50136H7.50138H7.50141H7.50143H7.50146H7.50148H7.5015H7.50153H7.50155H7.50157H7.50159H7.50162H7.50164H7.50166H7.50168H7.50171H7.50173H7.50175H7.50177H7.50179H7.50181H7.50184H7.50186H7.50188H7.5019H7.50192H7.50194H7.50196H7.50198H7.502H7.50202H7.50204H7.50206H7.50208H7.5021H7.50212H7.50214H7.50216H7.50218H7.5022H7.50222H7.50224H7.50226H7.50228H7.50229H7.50231H7.50233H7.50235H7.50237H7.50239H7.5024H7.50242H7.50244H7.50246H7.50247H7.50249H7.50251H7.50252H7.50254H7.50256H7.50258H7.50259H7.50261H7.50262H7.50264H7.50266H7.50267H7.50269H7.50271H7.50272H7.50274H7.50275H7.50277H7.50278H7.5028H7.50281H7.50283H7.50284H7.50286H7.50287H7.50289H7.5029H7.50292H7.50293H7.50294H7.50296H7.50297H7.50299H7.503H7.50301H7.50303H7.50304H7.50305H7.50307H7.50308H7.50309H7.50311H7.50312H7.50313H7.50314H7.50316H7.50317H7.50318H7.50319H7.50321H7.50322H7.50323H7.50324H7.50325H7.50326H7.50328H7.50329H7.5033H7.50331H7.50332H7.50333H7.50334H7.50335H7.50337H7.50338H7.50339H7.5034H7.50341H7.50342H7.50343H7.50344H7.50345H7.50346H7.50347H7.50348H7.50349H7.5035H7.50351H7.50352H7.50353H7.50354H7.50355H7.50355H7.50356H7.50357H7.50358H7.50359H7.5036H7.50361H7.50362H7.50362H7.50363H7.50364H7.50365H7.50366H7.50367H7.50367H7.50368H7.50369H7.5037H7.50371H7.50371H7.50372H7.50373H7.50374H7.50374H7.50375H7.50376H7.50377H7.50377H7.50378H7.50379H7.50379H7.5038H7.50381H7.50381H7.50382H7.50383H7.50383H7.50384H7.50385H7.50385H7.50386H7.50386H7.50387H7.50388H7.50388H7.50389H7.50389H7.5039H7.5039H7.50391H7.50392H7.50392H7.50393H7.50393H7.50394H7.50394H7.50395H7.50395H7.50396H7.50396H7.50397H7.50397H7.50398H7.50398H7.50399H7.50399H7.50399H7.504H7.504H7.50401H7.50401H7.50402H7.50402H7.50402H7.50403H7.50403H7.50404H7.50404H7.50404H7.50405H7.50405H7.50406H7.50406H7.50407H7.50408H7.50408H7.50409H7.5041H7.5041H7.50411H7.50411H7.50412H7.50412H7.50413H7.50413H7.50414H7.50414H7.50415H7.50415H7.50416H7.50416H7.50416H7.50417H7.50417H7.50418H7.50418H7.50419H7.50419H7.50419H7.5042H7.5042H7.50421H7.50421H7.50421H7.50422H7.50422ZM4.34225 7.5161C4.34225 9.30183 5.73979 10.782 7.50422 10.782C9.26866 10.782 10.6662 9.30183 10.6662 7.5161C10.6662 5.73036 9.26866 4.25024 7.50422 4.25024C5.73979 4.25024 4.34225 5.73036 4.34225 7.5161Z" fill="#23AA49" stroke="black"/>
</svg>
